<svg width="20" height="13" viewBox="0 0 20 13" fill="none" xmlns="http://www.w3.org/2000/svg">
<path d="M14.19 0H5.81C2.17 0 0 2.17 0 5.81V8.85C0.22 8.77 0.46 8.73 0.7 8.73H4.2C5.75 8.73 7.14 9.59 7.83 10.98L8.58 12.45H11.44L12.19 10.97C12.5254 10.2948 13.0432 9.72704 13.6848 9.33113C14.3264 8.93521 15.0661 8.72697 15.82 8.73H19.3C19.54 8.73 19.78 8.77 20 8.85V5.81C20 2.17 17.83 0 14.19 0ZM8.45 3.41H11.55C11.93 3.41 12.25 3.72 12.25 4.1C12.25 4.49 11.93 4.8 11.55 4.8H8.45C8.07 4.8 7.75 4.49 7.75 4.1C7.75263 3.91609 7.82754 3.7406 7.95853 3.61148C8.08952 3.48236 8.26607 3.40998 8.45 3.41ZM12.33 7.59H7.67C7.29 7.59 6.98 7.28 6.98 6.9C6.98 6.51 7.29 6.2 7.67 6.2H12.33C12.71 6.2 13.02 6.51 13.02 6.9C13.02 7.28 12.71 7.59 12.33 7.59Z" fill="#FF9A00"/>
</svg>
