<svg xmlns="http://www.w3.org/2000/svg" width="74" height="70" fill="none" viewBox="0 0 74 70">
  <path fill="#FF9A00" d="M5.333 48c-1.375 0-2.552-.538-3.53-1.616-.98-1.077-1.47-2.371-1.47-3.884V5.833c0-1.512.49-2.807 1.47-3.884C2.78.872 3.957.333 5.332.333h63.334c1.375 0 2.552.539 3.531 1.616.98 1.077 1.469 2.372 1.469 3.884V42.5c0 1.513-.49 2.807-1.469 3.884-.98 1.078-2.156 1.616-3.531 1.616H5.333Zm0-42.167V42.5h63.334V5.833H5.333Zm1.917 55-.25-5.5 59.917-3.483.25 5.5L7.25 60.833ZM7 69.908v-5.5h60v5.5H7ZM32 34.25c3.936 0 7.725-.749 11.369-2.246 3.643-1.497 6.853-3.804 9.631-6.92.278 2.26 1.306 4.017 3.084 5.27A11.17 11.17 0 0 0 62 32.417v-16.5c-2.222.183-4.236.886-6.041 2.108-1.806 1.222-2.82 2.995-3.042 5.317-2.821-2.972-6.028-5.258-9.62-6.858A27.462 27.462 0 0 0 32 14.084c-4.155 0-8.152.779-11.99 2.337-3.84 1.558-7.01 4.14-9.51 7.746 2.5 3.605 5.67 6.187 9.51 7.745A31.587 31.587 0 0 0 32 34.25Z"/>
</svg>
