<svg xmlns="http://www.w3.org/2000/svg" width="77" height="70" fill="none" viewBox="0 0 77 70">
  <path fill="#FF9A00" d="M28.255 64.75h19.759v-4.9l3.436-1.313c4.71-1.808 8.56-4.17 11.55-7.087s5.123-6.096 6.395-9.538H6.873c1.272 3.442 3.436 6.636 6.49 9.582 3.055 2.946 6.873 5.294 11.455 7.044l3.436 1.312v4.9ZM22.526 70v-6.825c-6.682-2.45-11.995-6.008-15.94-10.675C2.64 47.833.444 42.583 0 36.75h6.873V7.087L76.363 0v4.375L30.737 9.012v7.613h45.628V21H30.736v15.75h45.532c-.382 5.833-2.577 11.083-6.586 15.75-4.01 4.667-9.323 8.225-15.941 10.675V70H22.527ZM21.19 16.625h4.773V9.45l-4.773.525v6.65Zm-9.545 0h4.772v-6.213l-4.772.497v5.716ZM21.19 36.75h4.773V21H21.19v15.75Zm-9.545 0h4.772V21h-4.772v15.75Z"/>
</svg>
